<svg xmlns="http://www.w3.org/2000/svg" xmlns:xlink="http://www.w3.org/1999/xlink" id="Layer_1" x="0px" y="0px" viewBox="0 0 146 246" style="enable-background:new 0 0 146 246;" xml:space="preserve"> <style type="text/css"> .st0{clip-path:url(#SVGID_2_);fill:#EF4538;} .st1{clip-path:url(#SVGID_4_);fill:#EF4538;} .st2{clip-path:url(#SVGID_6_);fill:#FFFFFF;} .st3{clip-path:url(#SVGID_8_);fill:#FFFFFF;} .st4{clip-path:url(#SVGID_10_);fill:#FFFFFF;} .st5{clip-path:url(#SVGID_12_);fill:#FFFFFF;} .st6{clip-path:url(#SVGID_14_);fill:#FFFFFF;} .st7{clip-path:url(#SVGID_16_);fill:#FFFFFF;} .st8{clip-path:url(#SVGID_18_);fill:#FFFFFF;} .st9{clip-path:url(#SVGID_20_);fill:#FFFFFF;} .st10{clip-path:url(#SVGID_22_);fill:#FFFFFF;} .st11{clip-path:url(#SVGID_24_);fill:#FFFFFF;} .st12{clip-path:url(#SVGID_26_);fill:#FFFFFF;} .st13{clip-path:url(#SVGID_28_);fill:#FFFFFF;} .st14{clip-path:url(#SVGID_30_);fill:#FFFFFF;} .st15{clip-path:url(#SVGID_32_);fill:#FFFFFF;} .st16{clip-path:url(#SVGID_34_);fill:#FFFFFF;} .st17{clip-path:url(#SVGID_36_);fill:#FFFFFF;} .st18{clip-path:url(#SVGID_38_);fill:#FFFFFF;} .st19{clip-path:url(#SVGID_40_);fill:#FFFFFF;} .st20{clip-path:url(#SVGID_42_);fill:#FFFFFF;} .st21{clip-path:url(#SVGID_44_);fill:#FFFFFF;} .st22{clip-path:url(#SVGID_46_);fill:#FFFFFF;} .st23{clip-path:url(#SVGID_48_);fill:#FFFFFF;} .st24{clip-path:url(#SVGID_50_);fill:#FFFFFF;} .st25{clip-path:url(#SVGID_52_);fill:#FFFFFF;} .st26{clip-path:url(#SVGID_54_);fill:#FFFFFF;} .st27{clip-path:url(#SVGID_56_);fill:#FFFFFF;} .st28{clip-path:url(#SVGID_58_);fill:#FFFFFF;} .st29{clip-path:url(#SVGID_60_);fill:#FFFFFF;} .st30{clip-path:url(#SVGID_62_);fill:#FFFFFF;} </style> <g> <g> <defs> <rect id="SVGID_1_" x="12.5" y="0" width="119.5" height="242.4"></rect> </defs> <clipPath id="SVGID_2_"> <use xlink:href="#SVGID_1_" style="overflow:visible;"></use> </clipPath> <path class="st0" d="M132,204.3v-68c0-1.4-0.7-2.8-1.9-3.5l-55.9-34c-1.2-0.7-2.6-0.7-3.8,0l-55.9,34c-1.2,0.7-1.9,2-1.9,3.5v68 c0,1.4,0.7,2.8,1.9,3.5l55.9,34c1.2,0.7,2.6,0.7,3.8,0l55.9-34C131.3,207,132,205.7,132,204.3"></path> </g> <g> <defs> <rect id="SVGID_3_" x="12.5" y="0" width="119.5" height="242.4"></rect> </defs> <clipPath id="SVGID_4_"> <use xlink:href="#SVGID_3_" style="overflow:visible;"></use> </clipPath> <path class="st1" d="M131.6,130c0.1,0.1,0.3,0.2,0.4,0.2V0H12.5v130.2c0.1-0.1,0.3-0.2,0.4-0.2l55.9-34c1.1-0.6,2.3-1,3.4-1 s2.4,0.3,3.4,1L131.6,130z"></path> </g> <g> <defs> <rect id="SVGID_5_" x="12.5" y="0" width="119.5" height="242.4"></rect> </defs> <clipPath id="SVGID_6_"> <use xlink:href="#SVGID_5_" style="overflow:visible;"></use> </clipPath> <path class="st2" d="M97.6,176.3c0,0.2-0.2,0.3-0.4,0.3h-22c-0.2,0-0.4-0.1-0.4-0.3v-4.6c0-0.3,0.1-0.7,0.4-0.9L88.5,156 c0,0,0-0.1-0.1-0.1H75.4c-0.2,0-0.4-0.2-0.4-0.3v-5.2c0-0.2,0.2-0.3,0.4-0.3H97c0.2,0,0.4,0.1,0.4,0.3v4.7c0,0.3-0.1,0.7-0.4,0.9 l-13.2,14.6c0,0,0,0.1,0.1,0.1h13.6c0.2,0,0.4,0.2,0.4,0.3v5.3H97.6z"></path> </g> <g> <defs> <rect id="SVGID_7_" x="12.5" y="0" width="119.5" height="242.4"></rect> </defs> <clipPath id="SVGID_8_"> <use xlink:href="#SVGID_7_" style="overflow:visible;"></use> </clipPath> <polygon class="st3" points="97.6,144.4 72.2,128.9 46.9,144.4 46.9,136.7 72.2,120.4 97.6,136.7 "></polygon> </g> <g> <defs> <rect id="SVGID_9_" x="12.5" y="0" width="119.5" height="242.4"></rect> </defs> <clipPath id="SVGID_10_"> <use xlink:href="#SVGID_9_" style="overflow:visible;"></use> </clipPath> <path class="st4" d="M63.3,164.6v-14.2c0-0.2,0.2-0.3,0.4-0.3h5.6c0.2,0,0.4,0.2,0.4,0.3v26c0,0.2-0.2,0.3-0.4,0.3h-4.5 c-0.5,0-0.8-0.2-1-0.6l-10.4-15c0-0.1-0.1,0-0.1,0v15.2c0,0.2-0.2,0.3-0.4,0.3h-5.6c-0.2,0-0.4-0.2-0.4-0.3v-26 c0-0.2,0.2-0.3,0.4-0.3h5.5c0.5,0,0.8,0.2,1.1,0.6L63.3,164.6C63.2,164.7,63.3,164.6,63.3,164.6"></path> </g> <g> <defs> <rect id="SVGID_11_" x="12.5" y="0" width="119.5" height="242.4"></rect> </defs> <clipPath id="SVGID_12_"> <use xlink:href="#SVGID_11_" style="overflow:visible;"></use> </clipPath> <path class="st5" d="M45.5,195.7c0-8.2,5.6-13.8,12.9-13.8s11.4,4.6,12.2,10.7c0,0.2-0.1,0.4-0.3,0.4l-6.1,0.2 c-0.1,0-0.2-0.1-0.2-0.1c-0.5-2.6-2.2-4.8-5.7-4.8c-3.7,0-5.9,2.9-5.9,7.4s2.2,7.4,5.9,7.4c3.6,0,5.2-2.3,5.7-5 c0-0.1,0.1-0.1,0.2-0.1l6.1,0.3c0.2,0,0.4,0.2,0.3,0.4c-0.8,6.2-4.9,10.8-12.2,10.8C51.1,209.5,45.5,203.9,45.5,195.7"></path> </g> <g> <defs> <rect id="SVGID_13_" x="12.5" y="0" width="119.5" height="242.4"></rect> </defs> <clipPath id="SVGID_14_"> <use xlink:href="#SVGID_13_" style="overflow:visible;"></use> </clipPath> <path class="st6" d="M74.4,57.8c0.1,1.8,1.5,2.6,3.3,2.6c1.8,0,3-0.8,3-2.3c0-1.4-0.9-2-2.4-2.3L77,55.6c-0.5-0.1-0.7-0.3-0.7-0.7 c0-0.5,0.5-0.8,1.1-0.8c1,0,1.5,0.4,1.6,1.2l1.5-0.1c-0.1-1.6-1.3-2.5-3.2-2.5c-1.7,0-2.9,1-2.9,2.3c0,1.4,0.8,1.9,2.3,2.2 l1.1,0.2c0.7,0.1,1,0.3,1,0.8S78.2,59,77.5,59c-1,0-1.5-0.4-1.7-1.3L74.4,57.8z M73.7,53c-0.2-0.2-0.5-0.3-1-0.3 c-1,0-1.6,0.8-1.9,1.6v-1.4h-1.9v7.3h1.9v-3.6c0-1.3,0.6-2,1.6-2c0.5,0,0.7,0.1,1.1,0.3L73.7,53z M62.5,55.8 c0.2-0.9,0.7-1.6,1.7-1.6c1.1,0,1.5,0.8,1.6,1.6H62.5z M66.1,57.6c-0.3,0.8-0.8,1.2-1.7,1.2c-1,0-1.8-0.8-1.9-1.8h5.2v-0.7 c0-2-1.2-3.6-3.4-3.6c-2.1,0-3.6,1.6-3.6,3.9c0,2.3,1.5,3.7,3.6,3.7c1.8,0,3-1,3.3-2.6L66.1,57.6z M57.2,60.2h1.9V49.8h-1.9v4.5 c-0.3-0.9-1.2-1.6-2.4-1.6c-2.1,0-3.1,1.7-3.1,3.8s1.1,3.8,3.1,3.8c1.2,0,2.1-0.7,2.4-1.6V60.2z M57.2,56.7c0,1.3-0.7,2.1-1.8,2.1 c-1.2,0-1.8-0.9-1.8-2.3c0-1.4,0.6-2.3,1.8-2.3c1.1,0,1.8,0.8,1.8,2.1V56.7z M48.3,60.2h1.9V49.8h-1.9V60.2z M44.5,51.7h1.9v-1.9 h-1.9V51.7z M44.5,60.2h1.9v-7.3h-1.9V60.2z M41.5,56.8c0,1.2-0.5,2-1.4,2s-1.4-0.7-1.4-1.8v-4.1h-1.9v4.5c0,1.6,0.6,2.9,2.4,2.9 c1.1,0,1.9-0.5,2.3-1.4v1.2h1.9v-7.3h-1.9C41.5,52.8,41.5,56.8,41.5,56.8z M28.9,51.5h2.4c1.2,0,1.7,0.6,1.7,1.3 c0,0.8-0.5,1.3-1.7,1.3h-2.4V51.5z M31.3,55.7c1.2,0,1.8,0.6,1.8,1.4c0,0.9-0.6,1.4-1.8,1.4h-2.5v-2.8 C28.8,55.7,31.3,55.7,31.3,55.7z M35.2,57.3c0-1.5-0.9-2.3-2.1-2.5c1.1-0.2,1.8-1,1.8-2.2c0-1.7-1.1-2.8-3.5-2.8h-4.3v10.4h4.6 C33.9,60.2,35.2,59.1,35.2,57.3"></path> </g> <g> <defs> <rect id="SVGID_15_" x="12.5" y="0" width="119.5" height="242.4"></rect> </defs> <clipPath id="SVGID_16_"> <use xlink:href="#SVGID_15_" style="overflow:visible;"></use> </clipPath> <path class="st7" d="M111,25.6h1.9V15.3H111v4.5c-0.3-0.9-1.2-1.6-2.4-1.6c-2.1,0-3.1,1.7-3.1,3.8s1.1,3.8,3.1,3.8 c1.2,0,2.1-0.7,2.4-1.6V25.6z M111,22.2c0,1.3-0.7,2.1-1.8,2.1c-1.2,0-1.8-0.9-1.8-2.3s0.6-2.3,1.8-2.3c1.1,0,1.8,0.8,1.8,2.1 V22.2z M99.6,21.8c0-1.2,0.6-2,1.5-2c0.9,0,1.4,0.6,1.4,1.8v4.1h1.9v-4.5c0-1.6-0.6-2.9-2.5-2.9c-1,0-1.9,0.6-2.3,1.4v-1.2h-1.9 v7.3h1.9C99.6,25.8,99.6,21.8,99.6,21.8z M95.4,21c0-1.9-1.2-2.8-3-2.8s-2.9,1-3.2,2.5l1.7,0.2c0.2-0.7,0.5-1.2,1.4-1.2 s1.2,0.5,1.2,1.3v0.2l-1.8,0.3c-1.5,0.3-2.6,0.9-2.6,2.3c0,1.2,0.9,2,2.4,2c1,0,2-0.4,2.4-1.3c0.2,0.8,0.6,1.3,1.4,1.3 c0.6,0,1-0.2,1.3-0.5v-1.1c-0.2,0.1-0.4,0.2-0.5,0.2c-0.3,0-0.5-0.2-0.5-0.6L95.4,21L95.4,21z M93.6,22.5c0,1.2-0.7,2-1.7,2 c-0.6,0-1-0.3-1-0.8c0-0.7,0.5-0.9,1.4-1.1l1.3-0.3L93.6,22.5L93.6,22.5z M85.7,25.6h1.9V15.3h-1.9V25.6z M83.7,21 c0-1.9-1.2-2.8-3-2.8s-2.9,1-3.2,2.5l1.7,0.2c0.2-0.7,0.5-1.2,1.4-1.2s1.2,0.5,1.2,1.3v0.2l-1.9,0.4c-1.5,0.3-2.6,0.9-2.6,2.3 c0,1.2,0.9,2,2.4,2c1,0,2-0.4,2.4-1.3c0.2,0.8,0.6,1.3,1.4,1.3c0.6,0,1-0.2,1.3-0.5v-1.1c-0.2,0.1-0.4,0.2-0.5,0.2 c-0.3,0-0.5-0.2-0.5-0.6V21z M81.9,22.5c0,1.2-0.7,2-1.7,2c-0.6,0-1-0.3-1-0.8c0-0.7,0.5-0.9,1.4-1.1l1.3-0.3L81.9,22.5L81.9,22.5 z M71.2,21.3c0.2-0.9,0.7-1.6,1.7-1.6c1.1,0,1.5,0.8,1.6,1.6H71.2z M74.7,23.1c-0.3,0.8-0.8,1.2-1.7,1.2c-1,0-1.8-0.8-1.9-1.8h5.3 v-0.7c0-2-1.2-3.6-3.4-3.6c-2.1,0-3.6,1.6-3.6,3.9s1.5,3.7,3.6,3.7c1.8,0,3-1,3.3-2.6L74.7,23.1z M62.7,23.9l5.4-7.1v-1.6h-7.9V17 h5.3l-5.4,7.1v1.5h8.1v-1.7H62.7z M50.2,18.4h-1.5l-1.3,4.8h0l-1.4-4.8H44l2.2,7.3H48l1.3-4.8h0.1l1.3,4.8h1.8l2.2-7.3h-1.7 l-1.4,4.8h-0.1L50.2,18.4z M38.3,21.3c0.2-0.9,0.7-1.6,1.7-1.6c1.1,0,1.5,0.8,1.6,1.6H38.3z M41.8,23.1c-0.3,0.8-0.8,1.2-1.7,1.2 c-1,0-1.8-0.8-1.9-1.8h5.2v-0.7c0-2-1.2-3.6-3.4-3.6c-2.1,0-3.6,1.6-3.6,3.9s1.5,3.7,3.6,3.7c1.8,0,3-1,3.3-2.6L41.8,23.1z M28.9,15.3H27v10.4h1.8v-7.3l5.1,7.3h1.5V15.3h-1.8v6.9L28.9,15.3z"></path> </g> <g> <defs> <rect id="SVGID_17_" x="12.5" y="0" width="119.5" height="242.4"></rect> </defs> <clipPath id="SVGID_18_"> <use xlink:href="#SVGID_17_" style="overflow:visible;"></use> </clipPath> <path class="st8" d="M47.4,37v-1.4h-1.9v7.3h1.9v-3.6c0-1.3,0.6-2,1.6-2c0.5,0,0.7,0.1,1.1,0.3l0.2-1.8c-0.2-0.2-0.5-0.3-1-0.3 C48.4,35.4,47.7,36.2,47.4,37"></path> </g> <g> <defs> <rect id="SVGID_19_" x="12.5" y="0" width="119.5" height="242.4"></rect> </defs> <clipPath id="SVGID_20_"> <use xlink:href="#SVGID_19_" style="overflow:visible;"></use> </clipPath> <path class="st9" d="M40.9,35.4c-2.1,0-3.6,1.6-3.6,3.9c0,2.3,1.5,3.7,3.6,3.7c1.7,0,3-1,3.3-2.6l-1.5-0.2 c-0.3,0.8-0.8,1.2-1.7,1.2c-1,0-1.8-0.8-1.9-1.8h5.2v-0.7C44.4,37.1,43.2,35.4,40.9,35.4 M39.2,38.5c0.2-0.9,0.7-1.6,1.7-1.6 c1.1,0,1.5,0.8,1.6,1.6H39.2z"></path> </g> <g> <defs> <rect id="SVGID_21_" x="12.5" y="0" width="119.5" height="242.4"></rect> </defs> <clipPath id="SVGID_22_"> <use xlink:href="#SVGID_21_" style="overflow:visible;"></use> </clipPath> <path class="st10" d="M34.1,39c-0.3,1.3-1.1,2.3-2.7,2.3c-1.7,0-2.9-1.4-2.9-3.6c0-2.2,1.2-3.6,2.9-3.6c1.6,0,2.4,1,2.7,2.4 l1.9-0.1c-0.4-2.4-1.9-4.1-4.6-4.1c-2.8,0-5,2.2-5,5.4s2.2,5.4,5,5.4c2.7,0,4.3-1.7,4.6-4L34.1,39z"></path> </g> <g> <defs> <rect id="SVGID_23_" x="12.5" y="0" width="119.5" height="242.4"></rect> </defs> <clipPath id="SVGID_24_"> <use xlink:href="#SVGID_23_" style="overflow:visible;"></use> </clipPath> <path class="st11" d="M54,40.6V37h1.9v-1.4H54v-2h-1.2l-0.2,1c-0.2,0.7-0.4,1-1,1.1l-0.5,0.1V37h1v4c0,1.5,0.9,2,2,2 c0.8,0,1.4-0.2,1.9-0.6v-1.3c-0.4,0.2-0.8,0.3-1.2,0.3C54.2,41.5,54,41.2,54,40.6"></path> </g> <g> <defs> <rect id="SVGID_25_" x="12.5" y="0" width="119.5" height="242.4"></rect> </defs> <clipPath id="SVGID_26_"> <use xlink:href="#SVGID_25_" style="overflow:visible;"></use> </clipPath> <path class="st12" d="M83.5,32.5V37c-0.3-0.9-1.2-1.6-2.4-1.6c-2.1,0-3.1,1.7-3.1,3.8s1.1,3.8,3.1,3.8c1.2,0,2.1-0.7,2.4-1.6v1.4 h1.9V32.5H83.5z M83.5,39.4c0,1.3-0.7,2.1-1.8,2.1c-1.2,0-1.8-0.9-1.8-2.3c0-1.4,0.6-2.3,1.8-2.3c1.1,0,1.8,0.8,1.8,2.1V39.4z"></path> </g> <g> <defs> <rect id="SVGID_27_" x="12.5" y="0" width="119.5" height="242.4"></rect> </defs> <clipPath id="SVGID_28_"> <use xlink:href="#SVGID_27_" style="overflow:visible;"></use> </clipPath> <path class="st13" d="M73.4,35.4c-2.1,0-3.6,1.6-3.6,3.9c0,2.3,1.5,3.7,3.6,3.7c1.8,0,3-1,3.3-2.6l-1.5-0.2 c-0.3,0.8-0.8,1.2-1.7,1.2c-1,0-1.8-0.8-1.9-1.8h5.2v-0.7C76.8,37.1,75.7,35.4,73.4,35.4 M71.7,38.5c0.2-0.9,0.7-1.6,1.7-1.6 c1.1,0,1.5,0.8,1.6,1.6H71.7z"></path> </g> <g> <defs> <rect id="SVGID_29_" x="12.5" y="0" width="119.5" height="242.4"></rect> </defs> <clipPath id="SVGID_30_"> <use xlink:href="#SVGID_29_" style="overflow:visible;"></use> </clipPath> <rect x="57.6" y="32.5" class="st14" width="1.9" height="1.9"></rect> </g> <g> <defs> <rect id="SVGID_31_" x="12.5" y="0" width="119.5" height="242.4"></rect> </defs> <clipPath id="SVGID_32_"> <use xlink:href="#SVGID_31_" style="overflow:visible;"></use> </clipPath> <rect x="57.6" y="35.6" class="st15" width="1.9" height="7.3"></rect> </g> <g> <defs> <rect id="SVGID_33_" x="12.5" y="0" width="119.5" height="242.4"></rect> </defs> <clipPath id="SVGID_34_"> <use xlink:href="#SVGID_33_" style="overflow:visible;"></use> </clipPath> <path class="st16" d="M63.9,35.2c0-1,0.5-1.5,1.2-1.5c0.6,0,1,0.4,1.2,0.9l1.4-0.5c-0.5-1.2-1.3-1.8-2.7-1.8c-1.8,0-3,1.1-3,3v0.3 h-1V37h1v5.9h1.9V37h2.4v5.9h1.9v-7.3h-4.3C63.9,35.6,63.9,35.2,63.9,35.2z"></path> </g> <g> <defs> <rect id="SVGID_35_" x="12.5" y="0" width="119.5" height="242.4"></rect> </defs> <clipPath id="SVGID_36_"> <use xlink:href="#SVGID_35_" style="overflow:visible;"></use> </clipPath> <path class="st17" d="M62.9,74c-0.2,1.1-0.9,1.9-2,1.9c-1.3,0-2.2-1-2.2-2.7s0.9-2.7,2.2-2.7c1.2,0,1.8,0.7,2.1,1.9h1.2 c-0.2-1.6-1.3-2.9-3.2-2.9c-2.1,0-3.5,1.5-3.5,3.8s1.4,3.8,3.5,3.8c1.9,0,3-1.3,3.2-2.9L62.9,74z"></path> </g> <g> <defs> <rect id="SVGID_37_" x="12.5" y="0" width="119.5" height="242.4"></rect> </defs> <clipPath id="SVGID_38_"> <use xlink:href="#SVGID_37_" style="overflow:visible;"></use> </clipPath> <path class="st18" d="M53.2,69.4c-2,0-3.4,1.6-3.4,3.8c0,2.2,1.4,3.8,3.4,3.8s3.5-1.5,3.5-3.8S55.2,69.4,53.2,69.4 M53.2,75.9 c-1.4,0-2.2-1.1-2.2-2.7s0.7-2.7,2.2-2.7c1.4,0,2.2,1.1,2.2,2.7S54.6,75.9,53.2,75.9"></path> </g> <g> <defs> <rect id="SVGID_39_" x="12.5" y="0" width="119.5" height="242.4"></rect> </defs> <clipPath id="SVGID_40_"> <use xlink:href="#SVGID_39_" style="overflow:visible;"></use> </clipPath> <path class="st19" d="M30.3,66.4l-4,10.4h1.4l1.2-3h4.5l1.2,3H36L32,66.4H30.3z M29.2,72.6L31,68h0.1l1.8,4.6H29.2z"></path> </g> <g> <defs> <rect id="SVGID_41_" x="12.5" y="0" width="119.5" height="242.4"></rect> </defs> <clipPath id="SVGID_42_"> <use xlink:href="#SVGID_41_" style="overflow:visible;"></use> </clipPath> <rect x="65.1" y="69.6" class="st20" width="1.3" height="7.2"></rect> </g> <g> <defs> <rect id="SVGID_43_" x="12.5" y="0" width="119.5" height="242.4"></rect> </defs> <clipPath id="SVGID_44_"> <use xlink:href="#SVGID_43_" style="overflow:visible;"></use> </clipPath> <path class="st21" d="M40.4,72.7l-1.3-0.2c-0.7-0.1-1.1-0.4-1.1-1c0-0.7,0.5-1.1,1.4-1.1c1.2,0,1.8,0.5,2,1.6l1.1-0.1 c-0.1-1.7-1.2-2.5-3-2.5c-1.5,0-2.6,0.9-2.6,2.2c0,1.2,0.7,1.8,2.1,2l1.2,0.2c0.8,0.2,1.3,0.4,1.3,1.1S40.8,76,39.9,76 c-1.2,0-1.9-0.6-2-1.7l-1.1,0.1c0.1,1.8,1.4,2.6,3.2,2.6c1.6,0,2.8-0.8,2.8-2.2C42.6,73.4,41.8,72.9,40.4,72.7"></path> </g> <g> <defs> <rect id="SVGID_45_" x="12.5" y="0" width="119.5" height="242.4"></rect> </defs> <clipPath id="SVGID_46_"> <use xlink:href="#SVGID_45_" style="overflow:visible;"></use> </clipPath> <path class="st22" d="M47,72.7l-1.3-0.2c-0.7-0.1-1.1-0.4-1.1-1c0-0.7,0.5-1.1,1.4-1.1c1.2,0,1.8,0.5,2,1.6l1.1-0.1 c-0.1-1.7-1.2-2.5-3-2.5c-1.5,0-2.6,0.9-2.6,2.2c0,1.2,0.7,1.8,2.1,2l1.2,0.2c0.8,0.2,1.3,0.4,1.3,1.1S47.4,76,46.5,76 c-1.2,0-1.9-0.6-2-1.7l-1.1,0.1c0.1,1.8,1.4,2.6,3.2,2.6c1.6,0,2.8-0.8,2.8-2.2C49.2,73.4,48.3,72.9,47,72.7"></path> </g> <g> <defs> <rect id="SVGID_47_" x="12.5" y="0" width="119.5" height="242.4"></rect> </defs> <clipPath id="SVGID_48_"> <use xlink:href="#SVGID_47_" style="overflow:visible;"></use> </clipPath> <path class="st23" d="M85.8,69.4c-2,0-3.4,1.6-3.4,3.8c0,2.2,1.4,3.8,3.4,3.8s3.5-1.5,3.5-3.8S87.8,69.4,85.8,69.4 M85.8,75.9 c-1.4,0-2.2-1.1-2.2-2.7s0.7-2.7,2.2-2.7c1.4,0,2.2,1.1,2.2,2.7S87.2,75.9,85.8,75.9"></path> </g> <g> <defs> <rect id="SVGID_49_" x="12.5" y="0" width="119.5" height="242.4"></rect> </defs> <clipPath id="SVGID_50_"> <use xlink:href="#SVGID_49_" style="overflow:visible;"></use> </clipPath> <rect x="80" y="66.4" class="st24" width="1.4" height="1.5"></rect> </g> <g> <defs> <rect id="SVGID_51_" x="12.5" y="0" width="119.5" height="242.4"></rect> </defs> <clipPath id="SVGID_52_"> <use xlink:href="#SVGID_51_" style="overflow:visible;"></use> </clipPath> <path class="st25" d="M94.2,69.4c-1,0-1.9,0.6-2.3,1.5v-1.3h-1.3v7.2H92v-4.1c0-1.3,0.8-2.2,1.8-2.2c1.1,0,1.6,0.8,1.6,2v4.3h1.3 v-4.5C96.8,70.6,96.1,69.4,94.2,69.4"></path> </g> <g> <defs> <rect id="SVGID_53_" x="12.5" y="0" width="119.5" height="242.4"></rect> </defs> <clipPath id="SVGID_54_"> <use xlink:href="#SVGID_53_" style="overflow:visible;"></use> </clipPath> <path class="st26" d="M73.6,75.3v-3.2c0-1.8-1-2.7-2.7-2.7c-1.6,0-2.6,1-2.9,2.3l1.2,0.2c0.2-0.8,0.7-1.5,1.7-1.5s1.5,0.6,1.5,1.6 v0.3l-1.8,0.4C69,73,67.9,73.6,67.9,75c0,1.2,0.9,2,2.2,2c1.1,0,2.1-0.6,2.4-1.5c0.1,0.9,0.5,1.4,1.3,1.4c0.5,0,0.8-0.2,1.1-0.4 v-0.7c-0.2,0.1-0.5,0.2-0.6,0.2C73.9,75.9,73.6,75.7,73.6,75.3 M72.4,73.5c0,1.4-0.9,2.4-2.1,2.4c-0.8,0-1.2-0.5-1.2-1.1 c0-0.9,0.7-1.1,1.8-1.3l1.5-0.3L72.4,73.5L72.4,73.5z"></path> </g> <g> <defs> <rect id="SVGID_55_" x="12.5" y="0" width="119.5" height="242.4"></rect> </defs> <clipPath id="SVGID_56_"> <use xlink:href="#SVGID_55_" style="overflow:visible;"></use> </clipPath> <rect x="80" y="69.6" class="st27" width="1.3" height="7.2"></rect> </g> <g> <defs> <rect id="SVGID_57_" x="12.5" y="0" width="119.5" height="242.4"></rect> </defs> <clipPath id="SVGID_58_"> <use xlink:href="#SVGID_57_" style="overflow:visible;"></use> </clipPath> <rect x="65.1" y="66.4" class="st28" width="1.4" height="1.5"></rect> </g> <g> <defs> <rect id="SVGID_59_" x="12.5" y="0" width="119.5" height="242.4"></rect> </defs> <clipPath id="SVGID_60_"> <use xlink:href="#SVGID_59_" style="overflow:visible;"></use> </clipPath> <path class="st29" d="M76.5,74.9v-4.4h1.9v-1h-1.9v-2h-0.7l-0.2,1c-0.2,0.7-0.3,1-0.9,1.2l-0.5,0.1v0.7h1V75 c0,1.4,0.7,1.9,1.6,1.9c0.7,0,1.3-0.2,1.7-0.6v-0.9c-0.4,0.2-0.8,0.4-1.3,0.4C76.8,75.9,76.5,75.6,76.5,74.9"></path> </g> <g> <defs> <rect id="SVGID_61_" x="12.5" y="0" width="119.5" height="242.4"></rect> </defs> <clipPath id="SVGID_62_"> <use xlink:href="#SVGID_61_" style="overflow:visible;"></use> </clipPath> <path class="st30" d="M93.3,195.2c2.7-0.5,4.5-2.5,4.5-5.5c0-4.5-2.9-7.4-9.4-7.4H75.2c-0.2,0-0.4,0.1-0.4,0.3v26 c0,0.2,0.2,0.3,0.4,0.3h13.9c5.9,0,9.3-2.7,9.3-7.3C98.6,197.9,96.2,195.8,93.3,195.2 M81.6,188.2c0-0.1,0.1-0.2,0.2-0.2h5.7 c2.4,0,3.3,1.1,3.3,2.5c0,1.3-0.9,2.4-3.3,2.4h-5.7c-0.1,0-0.2-0.1-0.2-0.2V188.2z M88.1,203.2h-6.3c-0.1,0-0.2-0.1-0.2-0.2v-4.6 c0-0.1,0.1-0.2,0.2-0.2h6.3c2.4,0,3.4,1.1,3.4,2.5C91.5,202.2,90.4,203.2,88.1,203.2"></path> </g> </g> </svg>