<svg id="Layer_1" xmlns="http://www.w3.org/2000/svg" viewBox="0 0 281 86"><style>.st0{fill:#fff}.st1{fill:none;stroke:#fefefe;stroke-width:1.808}.st2{fill:#fefefe}.st3{fill:#bbd031}.st4{fill:#0066b2}.st5{fill:#939598}.st6{fill:#f1c007}.st7{fill:none;stroke:#fff;stroke-width:2;stroke-miterlimit:10}.st8{fill:#a9b240}.st9{fill:#005ca9}.st10{fill:#9d9d9c}.st11{fill:#f5c500}</style><circle class="st7" cx="43.2" cy="42.7" r="41.4"/><path class="st0" d="M59.2 51.1h4v-4.2h-4v4.2zm0-6.9h4V40h-4v4.2zM43.3 4.8c-21 0-38 17-38 38 0 3.6.5 7.3 1.6 10.8h2.3V41.1l12.2-5.7v-2.9h1.4v2.3l4.9-2.3v6.2h7.8V20.8h16.9v32.8h2.4V37.7l2.1-2.1h-.1v-4.5h2.4v2.3l6-6 10.4 10.4v15.8h4.3C85.7 33.5 74.2 12.3 54 6.4c-3.5-1-7.1-1.6-10.7-1.6M46 41.5h3v-4.2h-3v4.2zm20.7 9.6h4v-4.2h-4v4.2zm0-6.9h4V40h-4v4.2zM46 28.3h3v-4.2h-3v4.2zm-7.6 6.5h3v-4.2h-3v4.2zM12 45.9h13.3V42H12v3.9zm26.4-4.5h3v-4.1h-3v4.1zm7.6-6.6h3v-4.1h-3v4.1zm-7.6-6.5h3v-4.1h-3v4.1z"/><path class="st8" d="M96.2 43.1h4.1v18.8h-4.1z"/><path class="st9" d="M96.2 61.7h4.1v18.8h-4.1z"/><path class="st10" d="M96.2 24h4.1v19.1h-4.1z"/><path class="st11" d="M96.2 5h4.1v19.1h-4.1z"/><path class="st0" d="M43.3 80.5c16.7 0 31.5-11 36.3-27H6.9c4.9 16.1 19.7 27 36.4 27zM111.8 20.8V5h3.3v13h6.4v2.8h-9.7zM124.7 20.8V5h3.3v15.8h-3.3zM138.3 7.6c-1.1-.1-2.3.4-2.9 1.4-.7.9-1 2.3-1 4 0 3.5 1.3 5.3 4 5.3 1.4-.1 2.7-.3 4-.8v2.8c-1.4.6-2.9.8-4.3.8-2.3 0-4-.7-5.3-2.1-1.2-1.4-1.8-3.4-1.8-6 0-1.5.3-3 .9-4.3.6-1.2 1.4-2.2 2.6-2.8 1.2-.7 2.6-1 3.9-1 1.6 0 3.2.4 4.6 1.1l-1.1 2.7c-.6-.3-1.2-.5-1.8-.7-.6-.3-1.2-.4-1.8-.4zM154.8 20.8h-9.1V5h9.1v2.7H149v3.5h5.3v2.7H149V18h5.7v2.8zM172 20.8h-4.2l-6.9-11.9h-.1c.1 2.1.2 3.6.2 4.5v7.4h-3V5h4.2l6.9 11.8h.1c-.1-2-.2-3.5-.2-4.3V5h3v15.8zM185.3 16.4c.1 1.3-.5 2.6-1.5 3.4-1 .8-2.4 1.2-4.3 1.2-1.5 0-3.1-.3-4.5-.9V17c.9.4 1.8.7 2.7 1 .7.2 1.3.3 2 .3.6 0 1.2-.1 1.7-.4.4-.3.6-.8.6-1.2 0-.3-.1-.6-.3-.8-.2-.3-.5-.5-.8-.7-.7-.4-1.4-.8-2.1-1.1-.8-.3-1.5-.8-2.2-1.3-.5-.4-.9-.9-1.2-1.5-.3-.6-.4-1.3-.4-1.9-.1-1.3.5-2.5 1.4-3.3.9-.8 2.3-1.2 3.9-1.2.8 0 1.6.1 2.3.3.8.2 1.6.5 2.3.8l-1.1 2.6c-.7-.3-1.4-.5-2.1-.7-.5-.1-1.1-.2-1.6-.2s-1 .1-1.5.4c-.3.3-.5.7-.5 1.2 0 .3.1.5.2.8.2.3.4.5.7.6.7.4 1.4.8 2.1 1.1 1.5.7 2.5 1.4 3 2.1 1 .6 1.3 1.6 1.2 2.5zM197.3 20.8h-9.1V5h9.1v2.7h-5.7v3.5h5.3v2.7h-5.3V18h5.7v2.8zM213.6 12.7c0 2.6-.7 4.6-2.2 6-1.5 1.4-3.6 2.1-6.4 2.1h-4.5V5h5c2.6 0 4.6.7 6 2 1.4 1.4 2.1 3.3 2.1 5.7zm-3.4.1c0-3.4-1.5-5.1-4.5-5.1h-1.8V18h1.4c3.3 0 4.9-1.7 4.9-5.2zM111.8 25.2h4.9c2.2 0 3.9.3 4.9 1 1 .6 1.5 1.6 1.5 3 0 .8-.2 1.6-.7 2.3-.4.6-1.1 1-1.8 1.1v.1c.8.1 1.6.6 2.2 1.2.5.7.7 1.6.7 2.4.1 1.3-.5 2.6-1.6 3.4-1 .8-2.5 1.2-4.2 1.2h-5.9V25.2zm3.4 6.2h1.9c.7.1 1.4-.1 2-.4.4-.3.6-.9.6-1.4 0-.5-.2-1-.7-1.3-.7-.3-1.4-.5-2.1-.4h-1.8l.1 3.5zm0 2.7v4.1h2.2c.7.1 1.4-.1 2-.5.5-.4.7-1 .7-1.6 0-1.3-.9-2-2.8-2h-2.1zM139.5 25.2v10.2c0 1.1-.2 2.1-.8 3.1-.5.9-1.3 1.6-2.3 2-1.1.5-2.3.7-3.5.7-2 0-3.6-.5-4.7-1.6-1.1-1-1.7-2.5-1.7-4.3V25.2h3.3v9.7c0 1.2.2 2.1.7 2.7.5.6 1.3.8 2.4.8 1.1 0 1.9-.3 2.4-.9.5-.6.7-1.5.7-2.7v-9.6h3.5zM142.4 40.9V25.2h3.3V41h-3.3zM148.9 40.9V25.2h3.3v13h6.4V41h-9.7zM174.4 32.9c0 2.6-.7 4.6-2.2 6-1.5 1.4-3.6 2.1-6.4 2.1h-4.5V25.2h5c2.6 0 4.6.7 6 2 1.4 1.4 2.1 3.3 2.1 5.7zm-3.4.1c0-3.4-1.5-5.1-4.5-5.1h-1.8v10.3h1.4c3.2 0 4.9-1.8 4.9-5.2zM177.3 40.9V25.2h3.3V41h-3.3zM197.6 40.9h-4.2L186.5 29h-.1c.1 2.1.2 3.6.2 4.5v7.4h-3V25.2h4.2l6.8 11.8h.1c-.1-2-.2-3.5-.2-4.3v-7.5h3v15.7zM207.2 32.1h6.3v8.2c-.9.3-1.9.5-2.9.7-.9.1-1.8.2-2.7.2-2.4 0-4.2-.7-5.5-2.1-1.3-1.4-1.9-3.4-1.9-6 0-2.5.7-4.5 2.2-6 1.5-1.4 3.5-2.1 6.1-2.1 1.6 0 3.2.3 4.7 1l-1.1 2.7c-1.1-.6-2.3-.9-3.6-.9-1.3-.1-2.6.5-3.5 1.5-.9 1-1.3 2.3-1.3 3.9 0 1.7.4 3 1.1 3.9.7.9 1.9 1.4 3.1 1.4.7 0 1.4-.1 2.1-.2V35h-3v-2.9zM122 50.6c0 1.6-.6 2.8-1.7 3.7s-2.7 1.3-4.7 1.3h-1.9v6.2H112V46h4.1c3.9 0 5.9 1.6 5.9 4.6zm-8.2 3.4h1.7c1.6 0 2.8-.3 3.5-.8.7-.5 1.1-1.4 1.1-2.5.1-.9-.3-1.8-1-2.3-.7-.5-1.7-.8-3.2-.8h-2.1V54zM126.2 55.2v6.6h-1.8V46h4.3c1.9 0 3.4.4 4.3 1.1.9.7 1.4 1.9 1.4 3.3 0 2.1-1.1 3.5-3.2 4.2l4.3 7.1h-2.2l-3.8-6.6-3.3.1zm0-1.5h2.5c1.3 0 2.2-.3 2.8-.8.6-.6 1-1.4.9-2.3 0-1-.3-1.8-.9-2.3-.6-.5-1.6-.7-3-.7h-2.4v6.1zM149.3 61.8l-2-5H141l-1.9 5h-1.9l6.2-15.8h1.5l6.2 15.8h-1.8zm-2.5-6.7l-1.8-4.9c-.2-.6-.5-1.4-.7-2.3-.2.8-.4 1.5-.7 2.3l-1.9 4.9h5.1zM159.2 47.4c-1.6-.1-3.1.6-4.1 1.7-1 1.2-1.5 2.7-1.5 4.7 0 2.1.5 3.7 1.5 4.8 1 1.1 2.3 1.7 4.1 1.7 1.3 0 2.6-.2 3.8-.6v1.6c-1.3.4-2.7.7-4 .6-2.3 0-4.1-.7-5.4-2.1-1.3-1.4-1.9-3.4-1.9-6 0-1.5.3-2.9.9-4.3.6-1.2 1.5-2.2 2.6-2.8 1.2-.7 2.6-1 4.1-1 1.5 0 3 .3 4.3.9l-.8 1.6c-1.1-.5-2.3-.7-3.6-.8zM172.6 61.8h-1.8V47.7h-5V46h11.8v1.6h-5v14.2zM179.5 61.8V46h1.8v15.8h-1.8zM190.6 61.8h-1.8V47.7h-5V46h11.8v1.6h-5v14.2zM197.9 61.8V46h1.8v15.8h-1.8zM216.9 53.9c0 2.5-.6 4.5-1.9 6-1.3 1.4-3.1 2.2-5.3 2.2-2.3 0-4.1-.7-5.4-2.1-1.3-1.4-1.9-3.4-1.9-6s.6-4.6 1.9-6c1.3-1.4 3.1-2.1 5.4-2.1 2.3 0 4 .7 5.3 2.2 1.2 1.3 1.9 3.3 1.9 5.8zm-12.6 0c0 2.1.5 3.8 1.4 4.9s2.2 1.7 4 1.7c1.7 0 3.1-.6 4-1.7.9-1.1 1.3-2.7 1.3-4.9 0-2.1-.4-3.7-1.3-4.8-.9-1.1-2.2-1.6-3.9-1.7-1.7 0-3.1.6-4 1.7-1 1.1-1.5 2.7-1.5 4.8zM231.4 61.8h-2.1l-8.6-13.2h-.1c.1 1.6.2 3 .2 4.3v9H219V46h2.1l8.6 13.2h.1c0-.2 0-.8-.1-1.9s-.1-1.8-.1-2.3v-9h1.7v15.8zM243.1 61.8h-8.8V46h8.8v1.6h-7v5.1h6.5v1.6h-6.5v5.8h7v1.7zM247.6 55.2v6.6h-1.8V46h4.3c1.9 0 3.4.4 4.3 1.1.9.7 1.4 1.9 1.4 3.3 0 2.1-1.1 3.5-3.2 4.2l4.3 7.1h-2.2l-3.8-6.6h-3.3zm0-1.5h2.5c1.3 0 2.2-.3 2.8-.8.6-.6 1-1.4.9-2.3 0-1-.3-1.8-.9-2.3-.6-.5-1.6-.7-3-.7h-2.4v6.1zM268.7 57.6c.1 1.3-.5 2.5-1.5 3.2-1 .8-2.4 1.2-4.1 1.2-1.9 0-3.3-.2-4.3-.7v-1.8c.7.3 1.4.5 2.1.6.7.2 1.5.2 2.3.2 1.2 0 2.1-.2 2.8-.7.6-.5 1-1.2.9-1.9 0-.5-.1-.9-.3-1.3-.3-.4-.7-.7-1.1-1-.8-.4-1.5-.7-2.3-1-1.5-.5-2.5-1.1-3.1-1.9-.7-.8-1-1.8-.9-2.8 0-1.1.5-2.2 1.4-2.9 1-.8 2.3-1.1 3.6-1.1 1.5 0 3 .3 4.3.9l-.6 1.6c-1.2-.5-2.5-.8-3.8-.8-.8 0-1.6.2-2.3.6-.5.4-.9 1.1-.8 1.7 0 .5.1.9.3 1.3.3.4.6.7 1 1 .7.4 1.4.7 2.2 1 1.7.6 2.8 1.2 3.4 1.9.5.8.9 1.7.8 2.7zM112 67.4h3.6c1.6 0 2.8.3 3.5.8.8.6 1.2 1.5 1.1 2.5 0 .7-.2 1.4-.7 1.9-.5.5-1.2.9-2 1v.1c.8.1 1.7.4 2.3 1 .5.6.8 1.3.7 2.1.1 1.1-.4 2.1-1.2 2.8-.8.6-1.9 1-3.4 1h-4l.1-13.2zm.9 5.7h2.9c1.2 0 2.1-.2 2.7-.6.6-.5.9-1.2.8-1.9.1-.8-.3-1.5-.9-1.9-.6-.4-1.6-.6-2.8-.6H113l-.1 5zm0 .8v5.6h3.1c2.4 0 3.6-1 3.6-2.9 0-1.8-1.3-2.7-3.8-2.7h-2.9zM124 70.7v6.2c0 1 .2 1.7.6 2.1.5.5 1.2.7 1.9.7 1.1 0 2-.3 2.5-.9.5-.6.8-1.5.8-2.8v-5.3h.9v9.7h-.7l-.2-1.3h-.1c-.6 1-1.7 1.5-3.3 1.5-2.2 0-3.3-1.2-3.3-3.5v-6.3h.9zM133.8 68c0-.6.2-.9.6-.9.2 0 .3.1.4.2.1.2.2.4.2.6 0 .2 0 .4-.2.6-.1.1-.2.2-.4.2-.4.2-.6-.1-.6-.7zm1 12.3h-.9v-9.7h.9v9.7zM138.9 80.3h-.9V66.5h.9v13.8zM145.7 70.5c.6 0 1.2.1 1.8.4.6.3 1 .8 1.4 1.3h.1c0-.7-.1-1.5-.1-2.2v-3.5h.9v13.8h-.6l-.2-1.5h-.1c-.7 1.1-1.9 1.7-3.2 1.7-1.3 0-2.3-.4-3.1-1.2-.7-.8-1.1-2-1.1-3.6 0-1.7.3-2.9 1-3.8.9-1 2-1.5 3.2-1.4zm0 .8c-.9-.1-1.8.4-2.4 1.1-.5.7-.8 1.8-.8 3.2 0 2.7 1.1 4.1 3.2 4.1 1.1 0 1.9-.3 2.4-.9.5-.6.8-1.7.8-3.1v-.2c0-1.5-.3-2.6-.8-3.2-.5-.7-1.3-1-2.4-1zM152.8 68c0-.6.2-.9.6-.9.2 0 .3.1.4.2.1.2.2.4.2.6 0 .2 0 .4-.2.6-.1.1-.2.2-.4.2-.4.2-.6-.1-.6-.7zm1 12.3h-.8v-9.7h.9l-.1 9.7zM163.8 80.3V74c0-1-.2-1.7-.6-2.1-.5-.5-1.2-.7-1.9-.7-1.2 0-2 .3-2.5.9-.5.6-.8 1.5-.8 2.8v5.3h-.9v-9.7h.7l.2 1.5c.6-1 1.7-1.5 3.3-1.5 2.2 0 3.3 1.2 3.3 3.5v6.3h-.8zM175.3 70.7v.6l-2 .1c.5.6.8 1.4.8 2.2 0 .9-.3 1.7-.9 2.3-.7.6-1.6.9-2.5.9-.3 0-.6 0-.9-.1-.3.2-.6.4-.8.6-.2.2-.3.5-.3.8 0 .3.1.5.4.7.4.2.8.2 1.2.2h1.7c.8-.1 1.7.2 2.4.6.6.5.9 1.2.8 1.9 0 .9-.4 1.8-1.2 2.4-.8.6-2 .8-3.5.8-1 .1-2-.2-2.8-.7-.6-.4-1-1.2-1-2 0-.6.2-1.2.6-1.7.5-.5 1-.8 1.7-.9-.3-.1-.5-.3-.7-.5-.2-.2-.3-.5-.3-.8 0-.6.4-1.2 1.2-1.7-.5-.2-1-.6-1.3-1.1-.3-.5-.5-1.1-.5-1.7 0-.9.3-1.7.9-2.3.7-.6 1.6-.9 2.5-.9.5 0 1 0 1.5.2h3zM167.5 82c0 1.3 1 2 3 2 2.5 0 3.8-.8 3.8-2.4 0-.5-.2-1-.6-1.3-.6-.3-1.3-.4-1.9-.4h-1.6c-1.8 0-2.7.7-2.7 2.1zm.8-8.3c0 .7.2 1.3.7 1.7 1.1.8 2.6.8 3.7 0 .5-.5.7-1.1.6-1.8.1-.7-.2-1.4-.7-1.9-.5-.4-1.2-.7-1.9-.6-.7 0-1.3.2-1.8.7-.4.6-.7 1.2-.6 1.9zM185.9 80.5c-1.2.1-2.4-.4-3.2-1.3-.8-.9-1.2-2.1-1.2-3.6 0-1.6.4-2.8 1.2-3.7.9-.9 2.1-1.4 3.3-1.3.8 0 1.6.1 2.4.4l-.2.8c-.7-.3-1.4-.4-2.2-.4-1-.1-2 .3-2.7 1.1-.6.7-.9 1.8-.9 3.2-.1 1.1.3 2.2.9 3.1.6.7 1.6 1.2 2.6 1.1.8 0 1.7-.2 2.4-.5v.8c-.8.2-1.6.4-2.4.3zM198.6 75.5c0 1.6-.4 2.8-1.1 3.7-.8.9-2 1.4-3.2 1.3-.8 0-1.6-.2-2.2-.6-.7-.4-1.2-1-1.5-1.8-.4-.8-.5-1.7-.5-2.6 0-1.6.4-2.8 1.1-3.7.8-.9 2-1.4 3.1-1.3 1.2-.1 2.3.4 3.1 1.3.9.9 1.2 2.1 1.2 3.7zm-7.6 0c0 1.3.3 2.4.9 3.1 1.2 1.4 3.3 1.5 4.7.3l.3-.3c.6-.7.9-1.8.9-3.1s-.3-2.4-.9-3.1c-.6-.7-1.5-1.1-2.5-1.1-1-.1-1.9.4-2.5 1.1-.6.7-.9 1.8-.9 3.1zM208 80.3V74c0-1-.2-1.7-.6-2.1-.5-.5-1.2-.7-1.9-.7-1.2 0-2 .3-2.5.9-.5.6-.8 1.5-.8 2.8v5.3h-.9v-9.7h.7l.2 1.3h.1c.6-1 1.7-1.5 3.3-1.5 2.2 0 3.3 1.2 3.3 3.5v6.3h-.9zM215.6 71.4h-2.3v8.9h-.9v-8.9h-1.8v-.5l1.8-.3v-.7c0-1.2.2-2.1.7-2.6s1.1-.8 2.1-.8c.5 0 1.1.1 1.6.2l-.2.8c-.5-.1-.9-.2-1.4-.2-.6-.1-1.1.2-1.5.6-.3.6-.5 1.3-.4 2v.9h2.3v.6zm1.8-3.4c0-.6.2-.9.6-.9.2 0 .3.1.4.2.1.2.2.4.2.6 0 .2 0 .4-.2.6-.1.1-.2.2-.4.2-.5.2-.6-.1-.6-.7zm1 12.3h-.9v-9.7h.9v9.7zM225.1 70.5c.6 0 1.2.1 1.8.4.6.3 1 .8 1.4 1.3h.1c0-.7-.1-1.5-.1-2.2v-3.5h.9v13.8h-.6l-.2-1.5h-.1c-.7 1.1-1.9 1.7-3.2 1.7-1.3 0-2.3-.4-3.1-1.2-.7-.8-1.1-2-1.1-3.6 0-1.7.3-2.9 1-3.8.9-1 2.1-1.5 3.2-1.4zm0 .8c-.9-.1-1.8.4-2.4 1.1-.5.7-.8 1.8-.8 3.2 0 2.7 1.1 4.1 3.2 4.1 1.1 0 1.9-.3 2.4-.9.5-.6.8-1.7.8-3.1v-.2c0-1.5-.3-2.6-.8-3.2-.5-.7-1.3-1-2.4-1zM236.3 80.5c-1.2.1-2.4-.4-3.3-1.3-.8-.9-1.2-2.1-1.2-3.6 0-1.6.4-2.8 1.1-3.7.7-.9 1.9-1.4 3.1-1.4 1 0 2 .4 2.7 1.2.7.9 1 2.1 1 3.2v.7h-6.9c0 1.3.3 2.3.9 3 .7.7 1.6 1.1 2.6 1 .5 0 1 0 1.5-.1s1.1-.3 1.6-.5v.8c-.5.2-1 .4-1.5.5-.6.2-1.1.2-1.6.2zm-.2-9.2c-.8 0-1.7.3-2.2.9-.6.7-1 1.7-1 2.6h6c.1-.9-.2-1.9-.7-2.6-.6-.6-1.4-1-2.1-.9zM249.1 80.3V74c0-1-.2-1.7-.6-2.1-.5-.5-1.2-.7-1.9-.7-1.2 0-2 .3-2.5.9-.5.6-.8 1.5-.8 2.8v5.3h-.9v-9.7h.7l.2 1.3h.1c.6-1 1.7-1.5 3.3-1.5 2.2 0 3.3 1.2 3.3 3.5v6.3h-.9zM257 80.5c-1.2.1-2.4-.4-3.2-1.3-.8-.9-1.2-2.1-1.2-3.6 0-1.6.4-2.8 1.2-3.7.9-.9 2.1-1.4 3.3-1.3.8 0 1.6.1 2.4.4l-.2.8c-.7-.3-1.4-.4-2.2-.4-1-.1-2 .3-2.7 1.1-.6.7-.9 1.8-.9 3.2-.1 1.1.3 2.2.9 3.1.6.7 1.6 1.2 2.6 1.1.8 0 1.7-.2 2.4-.5v.8c-.8.2-1.6.4-2.4.3zM265.6 80.5c-1.2.1-2.4-.4-3.3-1.3-.8-.9-1.2-2.1-1.2-3.6 0-1.6.4-2.8 1.1-3.7.7-.9 1.9-1.4 3.1-1.4 1 0 2 .4 2.7 1.2.7.9 1 2.1 1 3.2v.7h-6.9c0 1.3.3 2.3.9 3 .7.7 1.6 1.1 2.6 1 .5 0 1 0 1.5-.1s1.1-.3 1.6-.5v.8c-.5.2-1 .4-1.5.5-.5.2-1 .2-1.6.2zm-.2-9.2c-.8 0-1.7.3-2.2.9-.6.7-1 1.7-1 2.6h6c.1-.9-.2-1.9-.7-2.6-.6-.6-1.3-1-2.1-.9z"/></svg>